<?xml version="1.0" ?><!DOCTYPE svg  PUBLIC '-//W3C//DTD SVG 1.1//EN'  'http://www.w3.org/Graphics/SVG/1.1/DTD/svg11.dtd'><svg enable-background="new 0 0 24 24" height="24px" id="Layer_1" version="1.1" viewBox="0 0 24 24" width="24px" xml:space="preserve" xmlns="http://www.w3.org/2000/svg" xmlns:xlink="http://www.w3.org/1999/xlink"><g><path d="M16.5,11.9c-0.3,0-0.5-0.2-0.5-0.5c0-1.7-1.8-3-4-3c-0.3,0-0.5-0.2-0.5-0.5s0.2-0.5,0.5-0.5c2.7,0,5,1.8,5,4   C17,11.7,16.7,11.9,16.5,11.9z"/><path d="M19.7,0.5H4.3c-2.1,0-3.8,1.7-3.8,3.8v15.4c0,2.1,1.7,3.8,3.8,3.8h15.4c2.1,0,3.8-1.7,3.8-3.8V4.3   C23.5,2.2,21.8,0.5,19.7,0.5z M12,17.1c-0.3,0-0.7,0-1-0.1c-0.3,0.1-0.5,0.2-0.7,0.3c-1.4,0.3-2.2,0.6-2.5,0.8   c-0.2,0.1-0.3,0.2-0.5,0.2c-0.1,0-0.3-0.1-0.4-0.2c-0.2-0.2-0.2-0.4-0.2-0.7c0-0.4,0.1-1.1-0.2-2.4c-1-1-1.6-2.3-1.6-3.6   c0-3.1,3.2-5.7,7.1-5.7s7.1,2.6,7.1,5.7C19.1,14.6,15.9,17.1,12,17.1z"/></g></svg>